<?xml version="1.0" encoding="UTF-8"?>
<svg id="Layer_1" data-name="Layer 1" xmlns="http://www.w3.org/2000/svg" viewBox="0 0 60 60">
  <circle cx="30" cy="30" r="30" style="fill: #eb993f;"/>
  <path d="M30.56,31.85c-.29,0-.58.12-.79.33-.21.21-.33.49-.33.79v1.76l-2.85-2.85s-.06-.08-.08-.12c-.02-.05-.03-.09-.03-.14v-4.39c.74-.26,1.37-.78,1.76-1.46.4-.68.54-1.48.41-2.25-.13-.77-.54-1.48-1.14-1.98-.6-.51-1.36-.78-2.15-.78s-1.55.28-2.15.78c-.6.51-1,1.21-1.14,1.98-.13.78.01,1.57.41,2.25.4.68,1.02,1.19,1.76,1.46v4.39c0,.34.07.68.2.99s.32.6.56.84l2.85,2.85h-1.76c-.29,0-.58.12-.79.33-.21.21-.33.49-.33.79s.12.58.33.79c.21.21.49.33.79.33h4.44c.29,0,.58-.12.79-.33.21-.21.33-.49.33-.79v-4.44c0-.29-.12-.58-.33-.79-.21-.21-.49-.33-.79-.33ZM25.38,22.96c.22,0,.43.07.62.19.18.12.33.3.41.5.08.2.11.43.06.64-.04.22-.15.41-.3.57-.16.16-.35.26-.57.3-.22.04-.44.02-.64-.06-.2-.08-.38-.23-.5-.41-.12-.18-.19-.4-.19-.62,0-.29.12-.58.33-.79.21-.21.49-.33.79-.33ZM39.82,32.78v-4.39c0-.34-.07-.68-.2-.99-.13-.31-.32-.6-.56-.84l-2.85-2.85h1.76c.29,0,.58-.12.79-.33.21-.21.33-.49.33-.79s-.12-.58-.33-.79c-.21-.21-.49-.33-.79-.33h-4.44c-.29,0-.58.12-.79.33-.21.21-.33.49-.33.79v4.44c0,.29.12.58.33.79.21.21.49.33.79.33s.58-.12.79-.33c.21-.21.33-.49.33-.79v-1.76l2.85,2.85s.06.08.08.12c.02.05.03.09.03.14v4.39c-.74.26-1.37.78-1.76,1.46-.4.68-.54,1.48-.41,2.25.13.77.54,1.48,1.14,1.98s1.36.78,2.15.78,1.55-.28,2.15-.78,1-1.21,1.14-1.98c.13-.77-.01-1.57-.41-2.25-.4-.68-1.02-1.19-1.76-1.46h0ZM38.71,37.04c-.22,0-.43-.07-.62-.19-.18-.12-.33-.3-.41-.5-.08-.2-.11-.43-.06-.64.04-.22.15-.41.3-.57.16-.16.35-.26.57-.3.22-.04.44-.02.64.06.2.08.38.23.5.41.12.18.19.4.19.62,0,.29-.12.58-.33.79-.21.21-.49.33-.79.33Z" style="fill: #fff;"/>
</svg>