<?xml version="1.0" encoding="UTF-8"?>
<svg id="Layer_1" data-name="Layer 1" xmlns="http://www.w3.org/2000/svg" viewBox="0 0 60 60">
  <circle cx="30" cy="30" r="30" style="fill: #3d7b70;"/>
  <path d="M39.41,23.12l-1.53-3.05c-.1-.19-.24-.35-.42-.46-.18-.11-.39-.17-.6-.17h-13.73c-.21,0-.42.06-.6.17-.18.11-.33.27-.42.46l-1.53,3.05c-.08.16-.12.33-.12.51v12.97c0,.51.2.99.56,1.35.36.36.84.56,1.35.56h15.25c.51,0,.99-.2,1.35-.56s.56-.84.56-1.35v-12.97c0-.18-.04-.35-.12-.51ZM36.16,21.72l.57,1.14h-13.46l.57-1.14h12.31ZM22.75,36.22v-11.06h14.49v11.06h-14.49ZM33.86,30.07c.11.11.19.23.25.37.06.14.09.29.09.44s-.03.3-.09.44c-.06.14-.14.27-.25.37l-3.05,3.05c-.11.11-.23.19-.37.25-.14.06-.29.09-.44.09s-.3-.03-.44-.09c-.14-.06-.27-.14-.37-.25l-3.05-3.05c-.21-.21-.34-.51-.34-.81s.12-.6.34-.81c.21-.21.51-.34.81-.34s.6.12.81.34l1.1,1.1v-3.72c0-.3.12-.59.34-.81.21-.21.51-.34.81-.34s.59.12.81.34c.21.21.34.51.34.81v3.72l1.1-1.1c.11-.11.23-.19.37-.25.14-.06.29-.09.44-.09.15,0,.3.03.44.09.14.06.26.14.37.25Z" style="fill: #fff;"/>
</svg>