<?xml version="1.0" encoding="UTF-8"?>
<svg id="Layer_2" data-name="Layer 2" xmlns="http://www.w3.org/2000/svg" viewBox="0 0 218 145.33">
  <g id="Layer_1-2" data-name="Layer 1">
    <g>
      <path d="M4.36,0h209.28c2.41,0,4.36,1.95,4.36,4.36v140.97H0V4.36C0,1.95,1.95,0,4.36,0Z" style="fill: #f2f1f1;"/>
      <g style="opacity: .2;">
        <path d="M125.15,51.61h-32.31c-2.7,0-4.9,2.2-4.9,4.9v32.31c0,2.7,2.2,4.9,4.9,4.9h32.31c2.7,0,4.9-2.2,4.9-4.9v-32.31c0-2.7-2.2-4.9-4.9-4.9ZM127.91,88.82c0,1.52-1.23,2.75-2.75,2.75h-32.31c-1.52,0-2.75-1.23-2.75-2.75v-32.31c0-1.52,1.23-2.75,2.75-2.75h32.31c1.52,0,2.75,1.23,2.75,2.75v32.31Z" style="fill: #a7a9ac;"/>
        <path d="M116.22,68.89c-.39-.73-1.11-1.19-1.93-1.24-.82-.05-1.59.33-2.06,1.01l-5.33,7.76c-.04.06-.1.08-.14.08-.04,0-.1,0-.15-.06l-1.83-2.05c-.46-.51-1.12-.8-1.81-.78-.69.02-1.33.34-1.76.88l-8.13,10.26c-.26.32-.31.76-.13,1.14.18.37.56.61.97.61h29.88c.38,0,.73-.2.92-.52s.21-.73.03-1.06l-8.52-16.03h0ZM96.15,84.34l6.75-8.51c.04-.06.1-.07.14-.07s.1,0,.14.06l1.83,2.04c.48.54,1.17.82,1.89.77.72-.05,1.37-.41,1.78-1.01l5.33-7.76c.04-.06.09-.08.16-.08.07,0,.12.04.15.1l7.68,14.45h-25.86Z" style="fill: #a7a9ac;"/>
        <path d="M101.28,69.96c3.16,0,5.73-2.57,5.73-5.73s-2.57-5.73-5.73-5.73-5.73,2.57-5.73,5.73,2.57,5.73,5.73,5.73ZM101.28,60.65c1.97,0,3.58,1.61,3.58,3.58s-1.61,3.58-3.58,3.58-3.58-1.61-3.58-3.58,1.61-3.58,3.58-3.58Z" style="fill: #a7a9ac;"/>
      </g>
    </g>
  </g>
</svg>