<svg width="117" height="59" viewBox="0 0 117 59" fill="none" xmlns="http://www.w3.org/2000/svg">
<g clip-path="url(#clip0_457_62)">
<path d="M18.2514 5.57761C15.8 3.30854 13.14 1.75665 10.2657 1.87708C6.72538 2.01378 4.99007 5.67836 8.51461 9.41877C10.6551 11.5832 12.9534 13.5858 15.3904 15.41L16.5131 11.5517C12.3433 8.42473 8.3313 4.91587 9.43036 3.81213C11.1619 2.19231 14.3795 4.90217 17.4521 8.32438L18.2514 5.57761ZM113.515 39.7614C89.6514 44.2449 46.9109 30.5405 30.376 20.2373C26.8713 16.6426 22.8724 9.80042 18.2514 5.57761L17.448 8.33872C20.3786 11.634 23.1695 15.5966 24.2865 16.9173C23.4813 16.4497 19.9705 14.1057 16.5152 11.5445L15.3966 15.3885C21.1375 19.7951 27.2352 23.7161 33.6268 27.1107C38.2752 32.6561 46.0593 38.7873 55.2682 43.0693L55.4496 42.6865C48.7524 39.1104 42.6524 34.5143 37.3683 29.0629C60.027 39.4133 94.1305 45.7738 113.706 40.6806L113.515 39.7614Z" fill="#EA983F"/>
</g>
<defs>
<clipPath id="clip0_457_62">
<rect width="112.874" height="27.3894" fill="white" transform="matrix(-0.960178 -0.279389 -0.279389 0.960178 116.154 32.2681)"/>
</clipPath>
</defs>
</svg>
