<?xml version="1.0" encoding="UTF-8"?>
<svg id="Layer_2" data-name="Layer 2" xmlns="http://www.w3.org/2000/svg" viewBox="0 0 137 143">
  <g id="Layer_1-2" data-name="Layer 1">
    <path d="M137,2.86v137.28c0,1.58-1.84,2.86-4.11,2.86H0V0h132.89c2.27,0,4.11,1.28,4.11,2.86Z" style="fill: #f2f1f1;"/>
    <g style="opacity: .2;">
      <path d="M81.57,54.47h-26.13c-2.19,0-3.97,1.78-3.97,3.97v26.13c0,2.19,1.78,3.97,3.97,3.97h26.13c2.19,0,3.97-1.78,3.97-3.97v-26.13c0-2.19-1.78-3.97-3.97-3.97ZM83.79,84.57c0,1.23-1,2.22-2.22,2.22h-26.13c-1.23,0-2.22-1-2.22-2.22v-26.13c0-1.23,1-2.22,2.22-2.22h26.13c1.23,0,2.22,1,2.22,2.22v26.13Z" style="fill: #a7a9ac;"/>
      <path d="M74.34,68.44c-.31-.59-.9-.96-1.56-1-.66-.04-1.29.27-1.66.82l-4.31,6.27s-.08.06-.11.06c-.03,0-.08,0-.12-.05l-1.48-1.65c-.37-.42-.91-.65-1.46-.63-.56.02-1.08.28-1.42.72l-6.58,8.3c-.21.26-.25.62-.1.92.15.3.45.49.78.49h24.16c.31,0,.59-.16.75-.42s.17-.59.02-.86l-6.89-12.97h0ZM58.1,80.95l5.46-6.89s.08-.06.11-.06.08,0,.12.05l1.48,1.65c.39.43.95.66,1.53.62.58-.04,1.11-.34,1.44-.82l4.31-6.27s.08-.07.13-.06c.06,0,.1.03.12.08l6.21,11.69h-20.91Z" style="fill: #a7a9ac;"/>
      <path d="M62.26,69.31c2.56,0,4.64-2.08,4.64-4.64s-2.08-4.64-4.64-4.64-4.64,2.08-4.64,4.64,2.08,4.64,4.64,4.64ZM62.26,61.78c1.6,0,2.89,1.3,2.89,2.89s-1.3,2.89-2.89,2.89-2.89-1.3-2.89-2.89,1.3-2.89,2.89-2.89Z" style="fill: #a7a9ac;"/>
    </g>
  </g>
</svg>