<svg width="140" height="140" viewBox="0 0 140 140" fill="none" xmlns="http://www.w3.org/2000/svg">
<g filter="url(#filter0_d_391_233)">
<path fill-rule="evenodd" clip-rule="evenodd" d="M70 84C86.5685 84 100 70.5685 100 54C100 37.4315 86.5685 24 70 24C53.4315 24 40 37.4315 40 54C40 70.5685 53.4315 84 70 84Z" fill="#3D7B70"/>
</g>
<path d="M79.997 47.669L78.4716 44.6182C78.3765 44.4283 78.2305 44.2685 78.0498 44.1569C77.8692 44.0453 77.661 43.9861 77.4486 43.9861H63.7198C63.5074 43.9861 63.2992 44.0453 63.1185 44.1569C62.9379 44.2685 62.7918 44.4283 62.6968 44.6182L61.1714 47.669C61.0918 47.828 61.0503 48.0033 61.0503 48.181V61.1471C61.0503 61.6528 61.2512 62.1378 61.6088 62.4954C61.9664 62.853 62.4514 63.0539 62.9571 63.0539H78.2113C78.717 63.0539 79.202 62.853 79.5596 62.4954C79.9172 62.1378 80.1181 61.6528 80.1181 61.1471V48.181C80.118 48.0033 80.0766 47.828 79.997 47.669ZM76.7412 46.2742L77.3132 47.4183H63.8552L64.4272 46.2742H76.7412ZM63.3384 60.7657V49.7064H77.83V60.7657H63.3384ZM74.4445 54.6173C74.5511 54.7236 74.6358 54.8499 74.6935 54.989C74.7512 55.128 74.781 55.2771 74.781 55.4277C74.781 55.5783 74.7512 55.7274 74.6935 55.8664C74.6358 56.0055 74.5511 56.1318 74.4445 56.2381L71.3936 59.2889C71.2873 59.3956 71.161 59.4802 71.022 59.538C70.8829 59.5957 70.7338 59.6254 70.5832 59.6254C70.4327 59.6254 70.2836 59.5957 70.1445 59.538C70.0054 59.4802 69.8791 59.3956 69.7729 59.2889L66.722 56.2381C66.5071 56.0232 66.3863 55.7317 66.3863 55.4277C66.3863 55.1238 66.5071 54.8323 66.722 54.6173C66.9369 54.4024 67.2284 54.2817 67.5324 54.2817C67.8363 54.2817 68.1278 54.4024 68.3428 54.6173L69.4401 55.7128V51.9946C69.4401 51.6911 69.5607 51.4001 69.7752 51.1856C69.9898 50.971 70.2808 50.8505 70.5842 50.8505C70.8876 50.8505 71.1786 50.971 71.3932 51.1856C71.6077 51.4001 71.7283 51.6911 71.7283 51.9946V55.7128L72.8256 54.6145C72.9321 54.5083 73.0584 54.4241 73.1974 54.3668C73.3364 54.3095 73.4853 54.2801 73.6356 54.2804C73.786 54.2806 73.9348 54.3105 74.0736 54.3683C74.2124 54.4262 74.3384 54.5108 74.4445 54.6173Z" fill="white"/>
<defs>
<filter id="filter0_d_391_233" x="0" y="0" width="140" height="140" filterUnits="userSpaceOnUse" color-interpolation-filters="sRGB">
<feFlood flood-opacity="0" result="BackgroundImageFix"/>
<feColorMatrix in="SourceAlpha" type="matrix" values="0 0 0 0 0 0 0 0 0 0 0 0 0 0 0 0 0 0 127 0" result="hardAlpha"/>
<feOffset dy="16"/>
<feGaussianBlur stdDeviation="20"/>
<feComposite in2="hardAlpha" operator="out"/>
<feColorMatrix type="matrix" values="0 0 0 0 0 0 0 0 0 0 0 0 0 0 0 0 0 0 0.06 0"/>
<feBlend mode="normal" in2="BackgroundImageFix" result="effect1_dropShadow_391_233"/>
<feBlend mode="normal" in="SourceGraphic" in2="effect1_dropShadow_391_233" result="shape"/>
</filter>
</defs>
</svg>
