<svg width="140" height="140" viewBox="0 0 140 140" fill="none" xmlns="http://www.w3.org/2000/svg">
<g filter="url(#filter0_d_391_221)">
<path fill-rule="evenodd" clip-rule="evenodd" d="M70 84C86.5685 84 100 70.5685 100 54C100 37.4315 86.5685 24 70 24C53.4315 24 40 37.4315 40 54C40 70.5685 53.4315 84 70 84Z" fill="#99C355"/>
</g>
<g clip-path="url(#clip0_391_221)">
<path d="M78.9364 44.4727H78.3654V43.655C78.3654 42.3499 77.3639 41.2881 76.1329 41.2881H63.47C62.239 41.2881 61.2375 42.3499 61.2375 43.655V44.4727H60.6665V46.0219H61.3212L61.8885 50.9532C62.1997 53.659 63.701 55.9395 65.794 57.2337L64.3167 66.1795H63.164V67.7288H76.4389V66.1795H75.2862L73.8088 57.2337C75.9019 55.9395 77.4031 53.659 77.7144 50.9532L78.2817 46.0219H78.9364L78.9364 44.4727ZM62.6988 43.655C62.6988 43.2042 63.0448 42.8373 63.47 42.8373H76.1329C76.5582 42.8373 76.9042 43.2042 76.9042 43.655V44.4727H62.6988V43.655ZM76.1506 51.4558L73.3897 50.6671L69.8014 51.6922L66.2132 50.6671L63.4524 51.4558C63.4036 51.2279 63.3658 50.9976 63.339 50.7657L63.2531 50.0187L66.2132 49.1731L69.8014 50.1982L73.3897 49.1731L76.3498 50.0187L76.2639 50.7657C76.2371 50.9976 76.1993 51.2279 76.1506 51.4558ZM73.8028 66.1795H65.8002L67.1666 57.906C67.9941 58.2141 68.8815 58.3816 69.8015 58.3816C70.7215 58.3816 71.6088 58.2141 72.4364 57.906L73.8028 66.1795ZM69.8015 56.8323C67.2441 56.8323 64.9947 55.2528 63.935 52.9224L66.2132 52.2716L69.8014 53.2967L73.3897 52.2716L75.6679 52.9224C74.6083 55.2528 72.3588 56.8323 69.8015 56.8323ZM76.5285 48.4652L73.3897 47.5685L69.8014 48.5936L66.2132 47.5685L63.0744 48.4652L62.7933 46.0219H76.8096L76.5285 48.4652Z" fill="white"/>
</g>
<defs>
<filter id="filter0_d_391_221" x="0" y="0" width="140" height="140" filterUnits="userSpaceOnUse" color-interpolation-filters="sRGB">
<feFlood flood-opacity="0" result="BackgroundImageFix"/>
<feColorMatrix in="SourceAlpha" type="matrix" values="0 0 0 0 0 0 0 0 0 0 0 0 0 0 0 0 0 0 127 0" result="hardAlpha"/>
<feOffset dy="16"/>
<feGaussianBlur stdDeviation="20"/>
<feComposite in2="hardAlpha" operator="out"/>
<feColorMatrix type="matrix" values="0 0 0 0 0 0 0 0 0 0 0 0 0 0 0 0 0 0 0.06 0"/>
<feBlend mode="normal" in2="BackgroundImageFix" result="effect1_dropShadow_391_221"/>
<feBlend mode="normal" in="SourceGraphic" in2="effect1_dropShadow_391_221" result="shape"/>
</filter>
<clipPath id="clip0_391_221">
<rect width="24.9393" height="26.4407" fill="white" transform="translate(57.2656 41.2881)"/>
</clipPath>
</defs>
</svg>
