<svg width="140" height="140" viewBox="0 0 140 140" fill="none" xmlns="http://www.w3.org/2000/svg">
<g filter="url(#filter0_d_391_239)">
<path fill-rule="evenodd" clip-rule="evenodd" d="M70 84C86.5685 84 100 70.5685 100 54C100 37.4315 86.5685 24 70 24C53.4315 24 40 37.4315 40 54C40 70.5685 53.4315 84 70 84Z" fill="#EB993F"/>
</g>
<path d="M69.2134 55.3435C68.9187 55.3435 68.6361 55.4606 68.4277 55.669C68.2193 55.8773 68.1022 56.16 68.1022 56.4546V58.2139L65.2476 55.362C65.2132 55.3276 65.186 55.2868 65.1674 55.2418C65.1488 55.1968 65.1392 55.1487 65.1393 55.1V50.7083C65.8806 50.4462 66.5055 49.9305 66.9033 49.2522C67.3012 48.574 67.4465 47.777 67.3135 47.002C67.1805 46.227 66.7779 45.5239 66.1767 45.0171C65.5755 44.5103 64.8145 44.2323 64.0282 44.2323C63.2418 44.2323 62.4808 44.5103 61.8797 45.0171C61.2785 45.5239 60.8758 46.227 60.7428 47.002C60.6099 47.777 60.7552 48.574 61.153 49.2522C61.5509 49.9305 62.1757 50.4462 62.9171 50.7083V55.1C62.9161 55.4406 62.9827 55.778 63.113 56.0927C63.2433 56.4074 63.4348 56.6932 63.6763 56.9333L66.5282 59.788H64.7689C64.4742 59.788 64.1916 59.905 63.9832 60.1134C63.7749 60.3218 63.6578 60.6044 63.6578 60.8991C63.6578 61.1938 63.7749 61.4764 63.9832 61.6848C64.1916 61.8931 64.4742 62.0102 64.7689 62.0102H69.2134C69.508 62.0102 69.7907 61.8931 69.999 61.6848C70.2074 61.4764 70.3245 61.1938 70.3245 60.8991V56.4546C70.3245 56.16 70.2074 55.8773 69.999 55.669C69.7907 55.4606 69.508 55.3435 69.2134 55.3435ZM64.0282 46.4546C64.2479 46.4546 64.4627 46.5198 64.6455 46.6419C64.8282 46.764 64.9706 46.9375 65.0547 47.1405C65.1388 47.3436 65.1608 47.567 65.1179 47.7825C65.0751 47.998 64.9692 48.196 64.8138 48.3514C64.6584 48.5068 64.4605 48.6126 64.2449 48.6555C64.0294 48.6984 63.806 48.6764 63.603 48.5923C63.3999 48.5082 63.2264 48.3658 63.1043 48.183C62.9822 48.0003 62.9171 47.7855 62.9171 47.5657C62.9171 47.2711 63.0341 46.9884 63.2425 46.7801C63.4509 46.5717 63.7335 46.4546 64.0282 46.4546ZM78.4726 56.275V51.8833C78.4736 51.5427 78.407 51.2053 78.2767 50.8906C78.1464 50.5759 77.9549 50.2902 77.7134 50.05L74.8615 47.1954H76.6208C76.9155 47.1954 77.1981 47.0783 77.4064 46.8699C77.6148 46.6616 77.7319 46.3789 77.7319 46.0843C77.7319 45.7896 77.6148 45.507 77.4064 45.2986C77.1981 45.0902 76.9155 44.9731 76.6208 44.9731H72.1763C71.8816 44.9731 71.599 45.0902 71.3906 45.2986C71.1823 45.507 71.0652 45.7896 71.0652 46.0843V50.5287C71.0652 50.8234 71.1823 51.106 71.3906 51.3144C71.599 51.5228 71.8816 51.6398 72.1763 51.6398C72.471 51.6398 72.7536 51.5228 72.962 51.3144C73.1704 51.106 73.2874 50.8234 73.2874 50.5287V48.7694L76.1421 51.6241C76.1764 51.6585 76.2037 51.6994 76.2223 51.7443C76.2409 51.7893 76.2504 51.8375 76.2504 51.8861V56.2778C75.509 56.5399 74.8842 57.0556 74.4864 57.7339C74.0885 58.4121 73.9432 59.2092 74.0762 59.9842C74.2091 60.7592 74.6118 61.4622 75.213 61.969C75.8142 62.4758 76.5752 62.7538 77.3615 62.7538C78.1478 62.7538 78.9088 62.4758 79.51 61.969C80.1112 61.4622 80.5139 60.7592 80.6468 59.9842C80.7798 59.2092 80.6345 58.4121 80.2367 57.7339C79.8388 57.0556 79.214 56.5399 78.4726 56.2778V56.275ZM77.3615 60.5287C77.1418 60.5287 76.9269 60.4635 76.7442 60.3415C76.5615 60.2194 76.4191 60.0458 76.335 59.8428C76.2509 59.6398 76.2289 59.4164 76.2717 59.2008C76.3146 58.9853 76.4204 58.7873 76.5758 58.6319C76.7312 58.4765 76.9292 58.3707 77.1447 58.3278C77.3603 58.285 77.5837 58.307 77.7867 58.3911C77.9897 58.4752 78.1633 58.6176 78.2854 58.8003C78.4075 58.983 78.4726 59.1978 78.4726 59.4176C78.4726 59.7123 78.3556 59.9949 78.1472 60.2033C77.9388 60.4116 77.6562 60.5287 77.3615 60.5287Z" fill="white"/>
<defs>
<filter id="filter0_d_391_239" x="0" y="0" width="140" height="140" filterUnits="userSpaceOnUse" color-interpolation-filters="sRGB">
<feFlood flood-opacity="0" result="BackgroundImageFix"/>
<feColorMatrix in="SourceAlpha" type="matrix" values="0 0 0 0 0 0 0 0 0 0 0 0 0 0 0 0 0 0 127 0" result="hardAlpha"/>
<feOffset dy="16"/>
<feGaussianBlur stdDeviation="20"/>
<feComposite in2="hardAlpha" operator="out"/>
<feColorMatrix type="matrix" values="0 0 0 0 0 0 0 0 0 0 0 0 0 0 0 0 0 0 0.06 0"/>
<feBlend mode="normal" in2="BackgroundImageFix" result="effect1_dropShadow_391_239"/>
<feBlend mode="normal" in="SourceGraphic" in2="effect1_dropShadow_391_239" result="shape"/>
</filter>
</defs>
</svg>
