<svg width="140" height="140" viewBox="0 0 140 140" fill="none" xmlns="http://www.w3.org/2000/svg">
<g filter="url(#filter0_d_391_227)">
<path fill-rule="evenodd" clip-rule="evenodd" d="M70 84C86.5685 84 100 70.5685 100 54C100 37.4315 86.5685 24 70 24C53.4315 24 40 37.4315 40 54C40 70.5685 53.4315 84 70 84Z" fill="#6E3F91"/>
</g>
<path d="M79.3515 54.0308C79.3515 54.3342 79.231 54.6252 79.0164 54.8398C78.8018 55.0543 78.5109 55.1749 78.2074 55.1749H69.8176C69.5142 55.1749 69.2232 55.0543 69.0086 54.8398C68.7941 54.6252 68.6735 54.3342 68.6735 54.0308C68.6735 53.7274 68.7941 53.4364 69.0086 53.2218C69.2232 53.0073 69.5142 52.8867 69.8176 52.8867H78.2074C78.5109 52.8867 78.8018 53.0073 79.0164 53.2218C79.231 53.4364 79.3515 53.7274 79.3515 54.0308ZM69.8176 49.0732H78.2074C78.5109 49.0732 78.8018 48.9527 79.0164 48.7381C79.231 48.5235 79.3515 48.2325 79.3515 47.9291C79.3515 47.6257 79.231 47.3347 79.0164 47.1201C78.8018 46.9056 78.5109 46.7851 78.2074 46.7851H69.8176C69.5142 46.7851 69.2232 46.9056 69.0086 47.1201C68.7941 47.3347 68.6735 47.6257 68.6735 47.9291C68.6735 48.2325 68.7941 48.5235 69.0086 48.7381C69.2232 48.9527 69.5142 49.0732 69.8176 49.0732ZM78.2074 58.9884H69.8176C69.5142 58.9884 69.2232 59.109 69.0086 59.3235C68.7941 59.5381 68.6735 59.8291 68.6735 60.1325C68.6735 60.4359 68.7941 60.7269 69.0086 60.9415C69.2232 61.156 69.5142 61.2766 69.8176 61.2766H78.2074C78.5109 61.2766 78.8018 61.156 79.0164 60.9415C79.231 60.7269 79.3515 60.4359 79.3515 60.1325C79.3515 59.8291 79.231 59.5381 79.0164 59.3235C78.8018 59.109 78.5109 58.9884 78.2074 58.9884ZM65.1946 45.5943L62.9532 47.8338L62.2372 47.1168C62.0223 46.9019 61.7308 46.7812 61.4268 46.7812C61.1229 46.7812 60.8314 46.9019 60.6164 47.1168C60.4015 47.3318 60.2808 47.6233 60.2808 47.9272C60.2808 48.2312 60.4015 48.5227 60.6164 48.7376L62.1419 50.263C62.2481 50.3697 62.3744 50.4543 62.5135 50.512C62.6526 50.5698 62.8017 50.5995 62.9522 50.5995C63.1028 50.5995 63.2519 50.5698 63.391 50.512C63.53 50.4543 63.6563 50.3697 63.7626 50.263L66.8135 47.2122C67.0284 46.9972 67.1491 46.7057 67.1491 46.4018C67.1491 46.0978 67.0284 45.8063 66.8135 45.5914C66.5985 45.3765 66.307 45.2557 66.0031 45.2557C65.6991 45.2557 65.4076 45.3765 65.1927 45.5914L65.1946 45.5943ZM65.1946 51.696L62.9532 53.9355L62.2372 53.2185C62.0223 53.0036 61.7308 52.8829 61.4268 52.8829C61.1229 52.8829 60.8314 53.0036 60.6164 53.2185C60.4015 53.4335 60.2808 53.725 60.2808 54.0289C60.2808 54.3329 60.4015 54.6244 60.6164 54.8393L62.1419 56.3647C62.2481 56.4714 62.3744 56.556 62.5135 56.6137C62.6526 56.6715 62.8017 56.7012 62.9522 56.7012C63.1028 56.7012 63.2519 56.6715 63.391 56.6137C63.53 56.556 63.6563 56.4714 63.7626 56.3647L66.8135 53.3139C67.0284 53.0989 67.1491 52.8074 67.1491 52.5035C67.1491 52.1995 67.0284 51.908 66.8135 51.6931C66.5985 51.4782 66.307 51.3574 66.0031 51.3574C65.6991 51.3574 65.4076 51.4782 65.1927 51.6931L65.1946 51.696ZM65.1946 57.7977L62.9532 60.0372L62.2372 59.3202C62.1308 59.2138 62.0044 59.1294 61.8654 59.0718C61.7263 59.0142 61.5773 58.9846 61.4268 58.9846C61.2763 58.9846 61.1273 59.0142 60.9882 59.0718C60.8492 59.1294 60.7229 59.2138 60.6164 59.3202C60.51 59.4266 60.4256 59.553 60.368 59.692C60.3104 59.8311 60.2808 59.9801 60.2808 60.1306C60.2808 60.2811 60.3104 60.4301 60.368 60.5692C60.4256 60.7082 60.51 60.8346 60.6164 60.941L62.1419 62.4664C62.2481 62.5731 62.3744 62.6577 62.5135 62.7154C62.6526 62.7732 62.8017 62.8029 62.9522 62.8029C63.1028 62.8029 63.2519 62.7732 63.391 62.7154C63.53 62.6577 63.6563 62.5731 63.7626 62.4664L66.8135 59.4156C67.0284 59.2006 67.1491 58.9091 67.1491 58.6052C67.1491 58.3012 67.0284 58.0097 66.8135 57.7948C66.5985 57.5799 66.307 57.4591 66.0031 57.4591C65.6991 57.4591 65.4076 57.5799 65.1927 57.7948L65.1946 57.7977Z" fill="white"/>
<defs>
<filter id="filter0_d_391_227" x="0" y="0" width="140" height="140" filterUnits="userSpaceOnUse" color-interpolation-filters="sRGB">
<feFlood flood-opacity="0" result="BackgroundImageFix"/>
<feColorMatrix in="SourceAlpha" type="matrix" values="0 0 0 0 0 0 0 0 0 0 0 0 0 0 0 0 0 0 127 0" result="hardAlpha"/>
<feOffset dy="16"/>
<feGaussianBlur stdDeviation="20"/>
<feComposite in2="hardAlpha" operator="out"/>
<feColorMatrix type="matrix" values="0 0 0 0 0 0 0 0 0 0 0 0 0 0 0 0 0 0 0.06 0"/>
<feBlend mode="normal" in2="BackgroundImageFix" result="effect1_dropShadow_391_227"/>
<feBlend mode="normal" in="SourceGraphic" in2="effect1_dropShadow_391_227" result="shape"/>
</filter>
</defs>
</svg>
