<?xml version="1.0" encoding="UTF-8"?>
<svg id="Layer_1" data-name="Layer 1" xmlns="http://www.w3.org/2000/svg" viewBox="0 0 60 60">
  <circle cx="30" cy="30" r="30" style="fill: #99c355;"/>
  <path d="M40.24,18.23h-.64v-.92c0-1.46-1.12-2.65-2.5-2.65h-14.19c-1.38,0-2.5,1.19-2.5,2.65v.92h-.64v1.74h.73l.64,5.53c.35,3.03,2.03,5.59,4.38,7.04l-1.66,10.03h-1.29v1.74h14.88v-1.74h-1.29l-1.66-10.03c2.35-1.45,4.03-4.01,4.38-7.04l.64-5.53h.73v-1.74ZM22.04,17.31c0-.51.39-.92.86-.92h14.19c.48,0,.86.41.86.92v.92h-15.92v-.92ZM37.12,26.05l-3.09-.88-4.02,1.15-4.02-1.15-3.09.88c-.05-.26-.1-.51-.13-.77l-.1-.84,3.32-.95,4.02,1.15,4.02-1.15,3.32.95-.1.84c-.03.26-.07.52-.13.77ZM34.48,42.56h-8.97l1.53-9.27c.93.35,1.92.53,2.95.53s2.03-.19,2.95-.53l1.53,9.27ZM30,32.08c-2.87,0-5.39-1.77-6.57-4.38l2.55-.73,4.02,1.15,4.02-1.15,2.55.73c-1.19,2.61-3.71,4.38-6.57,4.38ZM37.54,22.7l-3.52-1-4.02,1.15-4.02-1.15-3.52,1-.32-2.74h15.71l-.32,2.74Z" style="fill: #fff;"/>
</svg>