<?xml version="1.0" encoding="UTF-8"?>
<svg id="Layer_1" data-name="Layer 1" xmlns="http://www.w3.org/2000/svg" viewBox="0 0 60 60">
  <circle cx="30" cy="30" r="30" style="fill: #6e3f91;"/>
  <path d="M39.54,30.11c0,.3-.12.59-.34.81-.21.21-.51.34-.81.34h-8.39c-.3,0-.59-.12-.81-.34-.21-.21-.34-.51-.34-.81s.12-.59.34-.81c.21-.21.51-.34.81-.34h8.39c.3,0,.59.12.81.34.21.21.34.51.34.81ZM30,25.16h8.39c.3,0,.59-.12.81-.34.21-.21.34-.51.34-.81s-.12-.59-.34-.81c-.21-.21-.51-.34-.81-.34h-8.39c-.3,0-.59.12-.81.34-.21.21-.34.51-.34.81s.12.59.34.81c.21.21.51.34.81.34ZM38.39,35.07h-8.39c-.3,0-.59.12-.81.34-.21.21-.34.51-.34.81s.12.59.34.81c.21.21.51.34.81.34h8.39c.3,0,.59-.12.81-.34.21-.21.34-.51.34-.81s-.12-.59-.34-.81c-.21-.21-.51-.34-.81-.34ZM25.38,21.68l-2.24,2.24-.72-.72c-.21-.21-.51-.34-.81-.34s-.6.12-.81.34c-.21.21-.34.51-.34.81s.12.6.34.81l1.53,1.53c.11.11.23.19.37.25.14.06.29.09.44.09s.3-.03.44-.09c.14-.06.27-.14.37-.25l3.05-3.05c.21-.21.34-.51.34-.81s-.12-.6-.34-.81c-.21-.21-.51-.34-.81-.34s-.6.12-.81.34h0ZM25.38,27.78l-2.24,2.24-.72-.72c-.21-.21-.51-.34-.81-.34s-.6.12-.81.34c-.21.22-.34.51-.34.81s.12.6.34.81l1.53,1.53c.11.11.23.19.37.25.14.06.29.09.44.09s.3-.03.44-.09c.14-.06.27-.14.37-.25l3.05-3.05c.21-.22.34-.51.34-.81s-.12-.6-.34-.81c-.21-.21-.51-.34-.81-.34s-.6.12-.81.34h0ZM25.38,33.88l-2.24,2.24-.72-.72c-.11-.11-.23-.19-.37-.25-.14-.06-.29-.09-.44-.09s-.3.03-.44.09c-.14.06-.27.14-.37.25s-.19.23-.25.37c-.06.14-.09.29-.09.44s.03.3.09.44c.06.14.14.27.25.37l1.53,1.53c.11.11.23.19.37.25.14.06.29.09.44.09s.3-.03.44-.09c.14-.06.27-.14.37-.25l3.05-3.05c.21-.22.34-.51.34-.81s-.12-.6-.34-.81c-.21-.21-.51-.34-.81-.34s-.6.12-.81.34h0Z" style="fill: #fff;"/>
</svg>