<?xml version="1.0" encoding="UTF-8"?>
<svg id="Layer_1" data-name="Layer 1" xmlns="http://www.w3.org/2000/svg" viewBox="0 0 1200 800">
  <rect width="1200" height="800" style="fill: #f2f1f1;"/>
  <g style="opacity: .2;">
    <path d="M682.43,281.86h-190.66c-16.07,0-29.22,13.15-29.22,29.22v190.66c0,16.07,13.15,29.22,29.22,29.22h190.66c16.07,0,29.22-13.15,29.22-29.22v-190.66c0-16.07-13.15-29.22-29.22-29.22ZM698.5,501.74c0,8.77-7.3,16.07-16.07,16.07h-190.66c-8.77,0-16.07-7.3-16.07-16.07v-190.66c0-8.77,7.3-16.07,16.07-16.07h190.66c8.77,0,16.07,7.3,16.07,16.07v190.66Z" style="fill: #a7a9ac;"/>
    <path d="M629.1,384.13c-2.19-4.38-6.57-7.3-11.69-7.3s-9.5,2.19-12.42,5.84l-31.41,46.02h-1.46l-10.96-12.42c-2.92-2.92-6.57-4.38-10.96-4.38s-8.04,2.19-10.23,5.11l-48.21,60.63c-1.46,2.19-1.46,4.38-.73,6.57.73,2.19,2.92,3.65,5.84,3.65h176.78c2.19,0,4.38-1.46,5.11-2.92s1.46-4.38,0-6.57l-50.4-94.96h0l.73.73ZM510.76,475.44l40.18-50.4h1.46l10.96,12.42c2.92,2.92,6.57,5.11,10.96,4.38,4.38,0,8.04-2.19,10.23-5.84l31.41-46.02h1.46l45.29,85.47h-152.67.73Z" style="fill: #a7a9ac;"/>
    <path d="M541.44,389.98c18.99,0,33.6-15.34,33.6-33.6s-15.34-33.6-33.6-33.6-33.6,15.34-33.6,33.6,15.34,33.6,33.6,33.6ZM541.44,335.19c11.69,0,21.18,9.5,21.18,21.18s-9.5,21.18-21.18,21.18-21.18-9.5-21.18-21.18,9.5-21.18,21.18-21.18Z" style="fill: #a7a9ac;"/>
  </g>
</svg>